# xmcd
#
# Track frame offsets:
#	150
#	9619
#	28748
#	50763
#	72176
#	113638
#	137610
#	159000
#	169825
#	193346
#	217771
#	234794
#	256767
#	274366
#	296036
#	314482
#	326732
#	340232
#
# Disc length: 4780 seconds
#
# Revision: 3
# Processed by: cddbd v1.5.2PL0 Copyright (c) Steve Scherf et al.
# Submitted via: audiograbber 1.80
#
DISCID=0712aa12
DTITLE=Whiskey, Bikers and The Blues - Vol.5
DYEAR=2004
DGENRE=Blues
TTITLE0=HANK DAVISON - Intro
TTITLE1=CHRIS DUARTE - Fire's Gone Out
TTITLE2=OMAR and The HOWLERS - White Crosses
TTITLE3=ZZ TOP - Blue Jean Blues
TTITLE4=MICHAEL KATON - Big Bad Booty
TTITLE5=NUNO MINDELIS - Shake It
TTITLE6=BLUES COMPANY - Red Blood
TTITLE7=TOM WAITS - I'll Take New York
TTITLE8=JAY STULO - Strange Things Happening
TTITLE9=BACKBONE SLIP - Trouble Everyday
TTITLE10=Dr. FEELGOOD - The Blues Alone
TTITLE11=MICROWAVE DAVE - Road Runner
TTITLE12=JIMMY RIP - Laying in the Cut
TTITLE13=HANK SHIZZOE - Joe Went to the Water
TTITLE14=SCOTT ELLISON - Crowlin' on My Kness
TTITLE15=THE DUSTERS - Poison Love
TTITLE16=THE HEP CAT BOO DADDIES - Blood'n'Roses
TTITLE17=TOTH BAGI BAND - Your Way
EXTD=
EXTT0=
EXTT1=
EXTT2=
EXTT3=
EXTT4=
EXTT5=
EXTT6=
EXTT7=
EXTT8=
EXTT9=
EXTT10=
EXTT11=
EXTT12=
EXTT13=
EXTT14=
EXTT15=
EXTT16=
EXTT17=
PLAYORDER=
